Coordinates
version=1
nRows=19
nColumns=24
inDegrees=yes

Units are S.I. units (second, meters, Newtons, ...)
Angles are in degrees.

endheader
time	pelvis_tilt	pelvis_list	pelvis_rotation	pelvis_tx	pelvis_ty	pelvis_tz	hip_flexion_r	hip_adduction_r	hip_rotation_r	knee_angle_r	ankle_angle_r	subtalar_angle_r	mtp_angle_r	hip_flexion_l	hip_adduction_l	hip_rotation_l	knee_angle_l	ankle_angle_l	subtalar_angle_l	mtp_angle_l	lumbar_extension	lumbar_bending	lumbar_rotation
      3.97000000	     21.01423199	     -7.90355207	      6.40796948	      0.46228763	      0.97400188	      0.02722164	    -16.73819975	     12.29604450	    -11.42697554	     -7.79511092	      5.89843204	      4.77909013	     16.12668046	     -5.39978291	    -13.10135170	     -3.23194608	    -62.58638280	      3.08081644	     -7.44008486	     22.04648769	    -30.36004237	      9.93482082	     -2.60086170
      3.97500000	     20.95526665	     -7.74756159	      6.41803305	      0.46776728	      0.97442087	      0.02748487	    -17.23656387	     12.22456822	    -11.18259231	     -7.44746831	      6.07870574	      4.60880469	     16.04643868	     -4.60084228	    -12.80927154	     -3.19475518	    -62.22893574	      4.26022296	     -7.22445230	     22.06933964	    -30.35188329	      9.74763928	     -2.61373300
      3.98000000	     20.90095837	     -7.56791393	      6.39292363	      0.47332032	      0.97483971	      0.02777421	    -17.73763157	     12.11479515	    -10.96200003	     -7.12980227	      6.24401357	      4.40060250	     15.96642993	     -3.86722152	    -12.49033904	     -3.24345883	    -61.74863079	      5.39372136	     -7.06973375	     22.08032902	    -30.34412997	      9.52017752	     -2.63455761
      3.98500000	     20.83824857	     -7.47872994	      6.36335157	      0.47886776	      0.97516462	      0.02812645	    -18.26106189	     12.11000477	    -10.53109693	     -6.73024035	      6.48902963	      4.06528742	     14.94093886	     -3.12524072	    -12.28418598	     -3.31259190	    -61.25037915	      6.76943166	     -6.49644855	     20.40404836	    -30.32453259	      9.37573861	     -2.57316304
      3.99000000	     20.82206673	     -7.27610951	      6.31693969	      0.48444624	      0.97557731	      0.02840104	    -18.81873877	     11.96549032	    -10.27820433	     -6.39778419	      6.67394376	      3.89456555	     14.90838625	     -2.51504015	    -11.92887498	     -3.39537259	    -60.55829338	      7.78695359	     -6.20965363	     20.52981832	    -30.35782396	      9.11676297	     -2.55657317
      3.99500000	     20.84944763	     -7.14700091	      6.25882206	      0.49004617	      0.97597521	      0.02873473	    -19.46591047	     11.90505001	     -9.84840800	     -5.96601167	      6.78428725	      3.61312466	     14.78765873	     -1.97633391	    -11.67927241	     -3.53719477	    -59.80013048	      8.81359756	     -5.77439436	     20.56462920	    -30.43415726	      8.92307908	     -2.47098346
      4.00000000	     20.87132338	     -6.98929248	      6.18645446	      0.49565102	      0.97633824	      0.02906694	    -20.10035560	     11.80389402	     -9.45062345	     -5.55811563	      6.91111801	      3.31214319	     14.63404421	     -1.47485481	    -11.39230711	     -3.70177748	    -58.93423157	      9.77140994	     -5.33619111	     20.52254916	    -30.50661213	      8.69419749	     -2.39374818
      4.00500000	     20.89230802	     -6.82467346	      6.10507087	      0.50126175	      0.97667801	      0.02939798	    -20.73504711	     11.68689618	     -9.05309400	     -5.15259851	      7.04011865	      3.03654405	     14.46399533	     -1.00995006	    -11.09369165	     -3.87956769	    -57.96915392	     10.65340378	     -4.89367218	     20.43776756	    -30.57722628	      8.45310914	     -2.30906516
      4.01000000	     20.88455118	     -6.62474858	      6.00757763	      0.50691538	      0.97696610	      0.02972869	    -21.32858658	     11.51876701	     -8.73284915	     -4.78044777	      7.16889879	      2.79593353	     14.33019636	     -0.56212037	    -10.75358324	     -4.08890207	    -56.89251180	     11.42199142	     -4.45454362	     20.38752639	    -30.61359285	      8.16820243	     -2.25218194
      4.01500000	     20.91602845	     -6.54455303	      5.89968756	      0.51253562	      0.97718255	      0.03016180	    -22.00256844	     11.48148331	     -8.15821894	     -4.31511131	      7.37542757	      2.41911399	     13.07848262	     -0.15693587	    -10.57925095	     -4.35923302	    -55.80742558	     12.40097542	     -3.79193457	     18.83799553	    -30.69189771	      7.99187854	     -2.09667039
      4.02000000	     20.99832653	     -6.33614709	      5.77951787	      0.51821402	      0.97752133	      0.03049660	    -22.72254855	     11.29191362	     -7.82694637	     -3.89468137	      7.50652418	      2.29556829	     13.00422475	      0.09225017	    -10.24223681	     -4.64443523	    -54.50097731	     12.98684134	     -3.45602339	     18.87738980	    -30.82313023	      7.69172109	     -2.00096392
      4.02500000	     21.08593912	     -6.14877942	      5.65845424	      0.52387520	      0.97781073	      0.03086689	    -23.44479734	     11.12484012	     -7.49378140	     -3.46223400	      7.59371786	      2.13521451	     12.91462968	      0.30868157	     -9.93875448	     -4.94780891	    -53.11460667	     13.50584654	     -3.10611742	     18.88138968	    -30.96146578	      7.40604791	     -1.89049525
      4.03000000	     21.18623932	     -5.95335126	      5.52039910	      0.52958330	      0.97809576	      0.03124882	    -24.18756159	     10.94262154	     -7.20037006	     -3.01646397	      7.65976745	      1.99410372	     12.82337762	      0.45737576	     -9.63459732	     -5.30836992	    -51.61704661	     13.93549201	     -2.79551082	     18.84930343	    -31.10904290	      7.10619748	     -1.77746873
      4.03500000	     21.29406114	     -5.75173814	      5.36389065	      0.53528973	      0.97834662	      0.03166700	    -24.93878719	     10.74216290	     -6.89992762	     -2.57956860	      7.74047114	      1.87841522	     12.72497948	      0.55157840	     -9.32751977	     -5.70830861	    -50.01648474	     14.27259042	     -2.55011643	     18.79112277	    -31.26436737	      6.78698752	     -1.65345780
      4.04000000	     21.40832443	     -5.53284100	      5.18859231	      0.54098682	      0.97856864	      0.03209389	    -25.69594197	     10.50915991	     -6.59071119	     -2.15702056	      7.84646704	      1.77800398	     12.60919440	      0.58928239	     -9.00243922	     -6.15134511	    -48.30783583	     14.51131991	     -2.35867381	     18.72433804	    -31.42929958	      6.44327040	     -1.52857307
      4.04500000	     21.49730644	     -5.29393842	      4.99483159	      0.54674824	      0.97873124	      0.03254867	    -26.42053075	     10.24592083	     -6.36180907	     -1.75227472	      7.97494489	      1.70741256	     12.50689920	      0.60429547	     -8.66081630	     -6.65006074	    -46.50021508	     14.62397722	     -2.18765273	     18.67039667	    -31.55998985	      6.06517366	     -1.40563834
      4.05000000	     21.67971073	     -5.04649748	      4.78512085	      0.55248599	      0.97898310	      0.03298442	    -27.25281754	      9.96303051	     -6.11980108	     -1.33133123	      8.07872610	      1.72487419	     12.38394326	      0.44368565	     -8.30567401	     -7.18346610	    -44.54173683	     14.68462060	     -2.11301537	     18.62190195	    -31.79468440	      5.67899086	     -1.26477215
      4.05500000	     21.88214507	     -4.77820602	      4.56852044	      0.55830224	      0.97922127	      0.03341675	    -28.10894074	      9.65457300	     -5.96775076	     -0.91433282	      8.19019412	      1.85031275	     12.23853286	      0.20120199	     -7.92836114	     -7.77362174	    -42.46788458	     14.67601460	     -2.11700120	     18.60952310	    -32.04091340	      5.26747140	     -1.16601060
      4.06000000	     22.08429424	     -4.48849545	      4.31977666	      0.56413957	      0.97943738	      0.03385549	    -28.94158466	      9.30501830	     -5.87834652	     -0.54665742	      8.35986156	      2.00141510	     12.12827011	     -0.10251603	     -7.52109133	     -8.41804955	    -40.27557908	     14.50586395	     -2.08381430	     18.62862693	    -32.28314165	      4.82153200	     -1.02089519
